REM DIRINDEX 1\2\4,1\2\5,1\2\6,1\2\7,1\3\8,1\3\9
REM DIRNAME cjc037,folder01,folder02,folder03,folder04,folder05,folder06,folder07,folder08
TITLE ""
FILE "Disc1Track01.mp3" MP3
  TRACK 01 AUDIO
    TITLE "0:"
    INDEX 01 00:00:00
  TRACK 02 AUDIO
    TITLE "4:cjc037_0001"
    INDEX 01 00:00:07
  TRACK 03 AUDIO
    TITLE "0:"
    INDEX 01 00:01:30
  TRACK 04 AUDIO
    TITLE "4:cjc037_0002"
    INDEX 01 00:02:28
  TRACK 05 AUDIO
    TITLE "0:"
    INDEX 01 00:03:29
  TRACK 06 AUDIO
    TITLE "5:cjc037_0003"
    INDEX 01 00:04:03
  TRACK 07 AUDIO
    TITLE "0:"
    INDEX 01 00:06:49
  TRACK 08 AUDIO
    TITLE "6:cjc037_0004"
    INDEX 01 00:10:12
  TRACK 09 AUDIO
    TITLE "0:"
    INDEX 01 00:12:63
  TRACK 10 AUDIO
    TITLE "7:cjc037_0005"
    INDEX 01 00:16:20
  TRACK 11 AUDIO
    TITLE "0:"
    INDEX 01 00:18:25
  TRACK 12 AUDIO
    TITLE "4:cjc037_0006"
    INDEX 01 00:20:61
  TRACK 13 AUDIO
    TITLE "0:"
    INDEX 01 00:21:47
  TRACK 14 AUDIO
    TITLE "5:cjc037_0007"
    INDEX 01 00:22:21
  TRACK 15 AUDIO
    TITLE "0:"
    INDEX 01 00:25:33
  TRACK 16 AUDIO
    TITLE "6:cjc037_0008"
    INDEX 01 00:28:68
  TRACK 17 AUDIO
    TITLE "0:"
    INDEX 01 00:31:20
  TRACK 18 AUDIO
    TITLE "7:cjc037_0009"
    INDEX 01 00:34:57
  TRACK 19 AUDIO
    TITLE "0:"
    INDEX 01 00:36:52
  TRACK 20 AUDIO
    TITLE "4:cjc037_0010"
    INDEX 01 00:39:11
  TRACK 21 AUDIO
    TITLE "0:"
    INDEX 01 00:40:19
  TRACK 22 AUDIO
    TITLE "5:cjc037_0011"
    INDEX 01 00:40:70
  TRACK 23 AUDIO
    TITLE "0:"
    INDEX 01 00:43:68
  TRACK 24 AUDIO
    TITLE "6:cjc037_0012"
    INDEX 01 00:47:30
  TRACK 25 AUDIO
    TITLE "0:"
    INDEX 01 00:49:69
  TRACK 26 AUDIO
    TITLE "7:cjc037_0013"
    INDEX 01 00:53:25
  TRACK 27 AUDIO
    TITLE "0:"
    INDEX 01 00:55:28
  TRACK 28 AUDIO
    TITLE "4:cjc037_0014"
    INDEX 01 00:57:62
  TRACK 29 AUDIO
    TITLE "0:"
    INDEX 01 00:58:60
  TRACK 30 AUDIO
    TITLE "5:cjc037_0015"
    INDEX 01 00:59:36
  TRACK 31 AUDIO
    TITLE "0:"
    INDEX 01 01:03:27
  TRACK 32 AUDIO
    TITLE "6:cjc037_0016"
    INDEX 01 01:06:59
  TRACK 33 AUDIO
    TITLE "0:"
    INDEX 01 01:09:67
  TRACK 34 AUDIO
    TITLE "7:cjc037_0017"
    INDEX 01 01:13:26
  TRACK 35 AUDIO
    TITLE "0:"
    INDEX 01 01:15:58
  TRACK 36 AUDIO
    TITLE "4:cjc037_0018"
    INDEX 01 01:18:17
  TRACK 37 AUDIO
    TITLE "0:"
    INDEX 01 01:19:07
  TRACK 38 AUDIO
    TITLE "5:cjc037_0019"
    INDEX 01 01:19:60
  TRACK 39 AUDIO
    TITLE "0:"
    INDEX 01 01:21:69
  TRACK 40 AUDIO
    TITLE "6:cjc037_0020"
    INDEX 01 01:25:25
  TRACK 41 AUDIO
    TITLE "0:"
    INDEX 01 01:27:53
  TRACK 42 AUDIO
    TITLE "7:cjc037_0021"
    INDEX 01 01:31:12
  TRACK 43 AUDIO
    TITLE "0:"
    INDEX 01 01:32:72
  TRACK 44 AUDIO
    TITLE "4:cjc037_0022"
    INDEX 01 01:35:29
  TRACK 45 AUDIO
    TITLE "0:"
    INDEX 01 01:36:31
  TRACK 46 AUDIO
    TITLE "5:cjc037_0023"
    INDEX 01 01:37:07
  TRACK 47 AUDIO
    TITLE "0:"
    INDEX 01 01:40:15
  TRACK 48 AUDIO
    TITLE "6:cjc037_0024"
    INDEX 01 01:43:49
  TRACK 49 AUDIO
    TITLE "0:"
    INDEX 01 01:46:04
  TRACK 50 AUDIO
    TITLE "7:cjc037_0025"
    INDEX 01 01:49:39
  TRACK 51 AUDIO
    TITLE "0:"
    INDEX 01 01:51:36
  TRACK 52 AUDIO
    TITLE "4:cjc037_0026"
    INDEX 01 01:53:69
  TRACK 53 AUDIO
    TITLE "0:"
    INDEX 01 01:54:66
  TRACK 54 AUDIO
    TITLE "5:cjc037_0027"
    INDEX 01 01:55:42
  TRACK 55 AUDIO
    TITLE "0:"
    INDEX 01 01:58:46
  TRACK 56 AUDIO
    TITLE "6:cjc037_0028"
    INDEX 01 02:02:05
  TRACK 57 AUDIO
    TITLE "0:"
    INDEX 01 02:05:07
  TRACK 58 AUDIO
    TITLE "7:cjc037_0029"
    INDEX 01 02:08:41
  TRACK 59 AUDIO
    TITLE "0:"
    INDEX 01 02:10:71
  TRACK 60 AUDIO
    TITLE "4:cjc037_0030"
    INDEX 01 02:13:32
  TRACK 61 AUDIO
    TITLE "0:"
    INDEX 01 02:14:35
  TRACK 62 AUDIO
    TITLE "5:cjc037_0031"
    INDEX 01 02:15:07
  TRACK 63 AUDIO
    TITLE "0:"
    INDEX 01 02:18:19
  TRACK 64 AUDIO
    TITLE "6:cjc037_0032"
    INDEX 01 02:21:53
  TRACK 65 AUDIO
    TITLE "0:"
    INDEX 01 02:24:30
  TRACK 66 AUDIO
    TITLE "7:cjc037_0033"
    INDEX 01 02:27:65
  TRACK 67 AUDIO
    TITLE "0:"
    INDEX 01 02:30:05
  TRACK 68 AUDIO
    TITLE "4:cjc037_0034"
    INDEX 01 02:32:39
  TRACK 69 AUDIO
    TITLE "0:"
    INDEX 01 02:33:33
  TRACK 70 AUDIO
    TITLE "5:cjc037_0035"
    INDEX 01 02:34:11
  TRACK 71 AUDIO
    TITLE "0:"
    INDEX 01 02:38:44
  TRACK 72 AUDIO
    TITLE "6:cjc037_0036"
    INDEX 01 02:42:06
  TRACK 73 AUDIO
    TITLE "0:"
    INDEX 01 02:44:38
  TRACK 74 AUDIO
    TITLE "7:cjc037_0037"
    INDEX 01 02:47:72
  TRACK 75 AUDIO
    TITLE "0:"
    INDEX 01 02:49:69
  TRACK 76 AUDIO
    TITLE "4:cjc037_0038"
    INDEX 01 02:52:26
  TRACK 77 AUDIO
    TITLE "0:"
    INDEX 01 02:53:26
  TRACK 78 AUDIO
    TITLE "5:cjc037_0039"
    INDEX 01 02:54:06
  TRACK 79 AUDIO
    TITLE "0:"
    INDEX 01 02:57:25
  TRACK 80 AUDIO
    TITLE "6:cjc037_0040"
    INDEX 01 03:00:59
  TRACK 81 AUDIO
    TITLE "0:"
    INDEX 01 03:02:62
  TRACK 82 AUDIO
    TITLE "7:cjc037_0041"
    INDEX 01 03:06:22
  TRACK 83 AUDIO
    TITLE "0:"
    INDEX 01 03:07:69
  TRACK 84 AUDIO
    TITLE "4:cjc037_0042"
    INDEX 01 03:10:30
  TRACK 85 AUDIO
    TITLE "0:"
    INDEX 01 03:11:57
  TRACK 86 AUDIO
    TITLE "5:cjc037_0043"
    INDEX 01 03:12:35
  TRACK 87 AUDIO
    TITLE "0:"
    INDEX 01 03:15:00
  TRACK 88 AUDIO
    TITLE "6:cjc037_0044"
    INDEX 01 03:18:35
  TRACK 89 AUDIO
    TITLE "0:"
    INDEX 01 03:20:46
  TRACK 90 AUDIO
    TITLE "7:cjc037_0045"
    INDEX 01 03:24:05
  TRACK 91 AUDIO
    TITLE "0:"
    INDEX 01 03:25:61
  TRACK 92 AUDIO
    TITLE "4:cjc037_0046"
    INDEX 01 03:28:18
  TRACK 93 AUDIO
    TITLE "0:"
    INDEX 01 03:29:31
  TRACK 94 AUDIO
    TITLE "5:cjc037_0047"
    INDEX 01 03:30:09
  TRACK 95 AUDIO
    TITLE "0:"
    INDEX 01 03:32:67
  TRACK 96 AUDIO
    TITLE "6:cjc037_0048"
    INDEX 01 03:36:27
  TRACK 97 AUDIO
    TITLE "0:"
    INDEX 01 03:38:48
  TRACK 98 AUDIO
    TITLE "7:cjc037_0049"
    INDEX 01 03:42:08
  TRACK 99 AUDIO
    TITLE "0:"
    INDEX 01 03:43:65
  TRACK 100 AUDIO
    TITLE "4:cjc037_0050"
    INDEX 01 03:46:26
  TRACK 101 AUDIO
    TITLE "0:"
    INDEX 01 03:47:53
  TRACK 102 AUDIO
    TITLE "5:cjc037_0051"
    INDEX 01 03:48:29
  TRACK 103 AUDIO
    TITLE "0:"
    INDEX 01 03:50:63
  TRACK 104 AUDIO
    TITLE "6:cjc037_0052"
    INDEX 01 03:54:29
  TRACK 105 AUDIO
    TITLE "0:"
    INDEX 01 03:56:50
  TRACK 106 AUDIO
    TITLE "7:cjc037_0053"
    INDEX 01 04:00:08
  TRACK 107 AUDIO
    TITLE "0:"
    INDEX 01 04:01:69
  TRACK 108 AUDIO
    TITLE "4:cjc037_0054"
    INDEX 01 04:04:28
  TRACK 109 AUDIO
    TITLE "0:"
    INDEX 01 04:05:55
  TRACK 110 AUDIO
    TITLE "5:cjc037_0055"
    INDEX 01 04:06:27
  TRACK 111 AUDIO
    TITLE "0:"
    INDEX 01 04:10:17
  TRACK 112 AUDIO
    TITLE "6:cjc037_0056"
    INDEX 01 04:13:50
  TRACK 113 AUDIO
    TITLE "0:"
    INDEX 01 04:17:15
  TRACK 114 AUDIO
    TITLE "7:cjc037_0057"
    INDEX 01 04:20:48
  TRACK 115 AUDIO
    TITLE "0:"
    INDEX 01 04:23:27
  TRACK 116 AUDIO
    TITLE "4:cjc037_0058"
    INDEX 01 04:25:59
  TRACK 117 AUDIO
    TITLE "0:"
    INDEX 01 04:26:74
  TRACK 118 AUDIO
    TITLE "5:cjc037_0059"
    INDEX 01 04:27:50
  TRACK 119 AUDIO
    TITLE "0:"
    INDEX 01 04:30:27
  TRACK 120 AUDIO
    TITLE "6:cjc037_0060"
    INDEX 01 04:33:61
  TRACK 121 AUDIO
    TITLE "0:"
    INDEX 01 04:36:22
  TRACK 122 AUDIO
    TITLE "7:cjc037_0061"
    INDEX 01 04:39:57
  TRACK 123 AUDIO
    TITLE "0:"
    INDEX 01 04:41:56
  TRACK 124 AUDIO
    TITLE "4:cjc037_0062"
    INDEX 01 04:44:15
  TRACK 125 AUDIO
    TITLE "0:"
    INDEX 01 04:45:42
  TRACK 126 AUDIO
    TITLE "5:cjc037_0063"
    INDEX 01 04:46:14
  TRACK 127 AUDIO
    TITLE "0:"
    INDEX 01 04:48:43
  TRACK 128 AUDIO
    TITLE "6:cjc037_0064"
    INDEX 01 04:52:03
  TRACK 129 AUDIO
    TITLE "0:"
    INDEX 01 04:54:41
  TRACK 130 AUDIO
    TITLE "7:cjc037_0065"
    INDEX 01 04:57:73
  TRACK 131 AUDIO
    TITLE "0:"
    INDEX 01 04:59:62
  TRACK 132 AUDIO
    TITLE "4:cjc037_0066"
    INDEX 01 05:02:21
  TRACK 133 AUDIO
    TITLE "0:"
    INDEX 01 05:03:46
  TRACK 134 AUDIO
    TITLE "5:cjc037_0067"
    INDEX 01 05:04:22
  TRACK 135 AUDIO
    TITLE "0:"
    INDEX 01 05:07:38
  TRACK 136 AUDIO
    TITLE "6:cjc037_0068"
    INDEX 01 05:11:04
  TRACK 137 AUDIO
    TITLE "0:"
    INDEX 01 05:13:27
  TRACK 138 AUDIO
    TITLE "7:cjc037_0069"
    INDEX 01 05:16:60
  TRACK 139 AUDIO
    TITLE "0:"
    INDEX 01 05:18:42
